<?xml version="1.0" standalone="no"?>
<!DOCTYPE svg PUBLIC "-//W3C//DTD SVG 20010904//EN"
 "http://www.w3.org/TR/2001/REC-SVG-20010904/DTD/svg10.dtd">
<svg version="1.0" xmlns="http://www.w3.org/2000/svg"
 width="256.000000pt" height="256.000000pt" viewBox="0 0 256.000000 256.000000"
 preserveAspectRatio="xMidYMid meet">
<metadata>
Created by potrace 1.14, written by Peter Selinger 2001-2017
</metadata>
<g transform="translate(0.000000,256.000000) scale(0.100000,-0.100000)"
fill="#000000" stroke="none">
<path d="M418 1990 l5 -350 -46 0 -46 0 -3 -42 c-3 -43 -3 -43 -45 -46 -40 -3
-42 -4 -45 -40 -3 -36 -4 -37 -45 -40 l-43 -3 0 -44 0 -44 -42 -3 c-43 -3 -43
-3 -46 -45 -3 -40 -5 -43 -33 -43 -26 0 -29 -3 -29 -34 0 -32 2 -34 46 -40 26
-3 98 -6 160 -6 l114 0 0 -135 0 -135 -40 0 -40 0 0 -40 c0 -40 0 -40 39 -40
40 0 40 0 43 -43 3 -42 3 -42 46 -45 l42 -3 0 -45 0 -44 -85 0 -85 0 0 -40 0
-40 130 0 130 0 0 -90 0 -89 88 -3 87 -3 0 -35 c1 -33 3 -35 40 -40 l40 -5 3
-93 3 -92 477 2 c534 3 478 -5 481 71 1 25 4 27 41 27 38 0 40 2 40 29 0 50 9
61 51 61 l39 0 0 85 0 85 44 0 45 0 3 -42 c3 -43 3 -43 46 -46 42 -3 42 -3 42
-43 l0 -39 45 0 46 0 -3 83 -3 82 -42 3 c-42 3 -42 3 -45 45 -3 39 -5 42 -33
43 -16 1 -36 2 -43 3 -9 1 -12 14 -10 43 l3 43 173 3 172 2 0 40 c0 39 0 39
43 42 42 3 42 3 42 43 l0 40 -82 3 -82 3 -3 -43 -3 -43 -87 -3 -88 -3 0 91 0
90 85 0 85 0 0 40 0 40 -85 0 -85 0 0 45 0 45 -45 0 -45 0 0 45 0 45 266 0
267 0 -7 71 c-10 94 -12 99 -52 99 -34 0 -34 1 -34 45 l0 45 -45 0 -45 0 0 39
c0 40 0 40 -42 43 -43 3 -43 3 -46 45 -3 42 -3 42 -45 45 -42 3 -42 3 -45 46
l-3 44 -47 -4 -47 -3 8 255 c4 140 5 261 2 268 -2 7 -22 12 -45 12 l-40 0 0
40 0 40 -40 0 -40 0 0 -40 0 -40 -45 0 -45 0 0 -45 0 -45 -45 0 -45 0 0 -45 0
-45 -435 0 -435 0 0 -45 0 -45 -45 0 -45 0 0 45 0 45 -45 0 -45 0 0 45 0 45
-45 0 -45 0 0 45 0 45 -45 0 -45 0 0 40 c0 40 0 40 -39 40 l-39 0 6 -350z
m1629 -147 c-2 -32 -3 -6 -3 57 0 63 1 89 3 58 2 -32 2 -84 0 -115z m-1414
140 c-7 -2 -21 -2 -30 0 -10 3 -4 5 12 5 17 0 24 -2 18 -5z m1145 0 c-10 -2
-26 -2 -35 0 -10 3 -2 5 17 5 19 0 27 -2 18 -5z m-131 -105 c-3 -8 -6 -5 -6 6
-1 11 2 17 5 13 3 -3 4 -12 1 -19z m-1093 -234 c3 -8 2 -12 -4 -9 -6 3 -10 10
-10 16 0 14 7 11 14 -7z m26 -44 c0 -5 -4 -10 -10 -10 -5 0 -10 5 -10 10 0 6
5 10 10 10 6 0 10 -4 10 -10z m1067 -22 c-3 -7 -5 -2 -5 12 0 14 2 19 5 13 2
-7 2 -19 0 -25z m404 9 c-10 -9 -11 -8 -5 6 3 10 9 15 12 12 3 -3 0 -11 -7
-18z m-1291 -732 l0 -175 45 0 45 0 0 85 0 85 84 0 85 0 3 -42 c3 -42 4 -43
41 -43 37 0 37 0 37 -42 l0 -43 51 0 50 0 -3 48 -3 47 -42 3 c-42 3 -43 4 -43
37 0 33 1 34 43 37 42 3 42 3 45 45 3 42 3 42 45 45 42 3 42 3 45 46 3 42 3
42 43 42 l39 0 0 -175 0 -175 45 0 45 0 0 175 0 175 40 0 40 0 0 -40 0 -40 45
0 45 0 0 -89 0 -90 -42 -3 c-43 -3 -43 -3 -43 -43 0 -40 0 -40 43 -43 41 -3
42 -4 42 -37 0 -33 -1 -34 -42 -37 -43 -3 -43 -3 -46 -45 -3 -42 -3 -42 -45
-45 -42 -3 -42 -3 -45 -46 l-3 -42 -386 2 -387 3 0 40 c-1 40 -1 40 -42 43
l-41 3 -8 144 c-3 80 -4 174 0 210 l7 65 39 0 39 0 0 45 0 45 45 0 45 0 0
-175z"/>
<path d="M2250 1080 l0 -40 40 0 40 0 0 40 0 40 -40 0 -40 0 0 -40z"/>
<path d="M150 990 l0 -40 40 0 40 0 0 40 0 40 -40 0 -40 0 0 -40z"/>
<path d="M188 593 c-37 -4 -38 -5 -38 -44 0 -39 0 -39 40 -39 l40 0 0 45 c0
25 -1 44 -2 43 -2 -1 -20 -3 -40 -5z"/>
<path d="M410 380 l0 -40 40 0 40 0 0 40 0 40 -40 0 -40 0 0 -40z"/>
<path d="M320 290 l0 -40 45 0 45 0 0 40 0 40 -45 0 -45 0 0 -40z"/>
<path d="M2160 290 l0 -40 40 0 40 0 0 40 0 40 -40 0 -40 0 0 -40z"/>
</g>
</svg>
